<?xml version="1.0" encoding="utf-8"?>
<!-- Generator: Adobe Illustrator 26.3.1, SVG Export Plug-In . SVG Version: 6.00 Build 0)  -->
<svg version="1.1" id="Layer_1" xmlns="http://www.w3.org/2000/svg" xmlns:xlink="http://www.w3.org/1999/xlink" x="0px" y="0px"
	 viewBox="0 0 1300 1001" style="enable-background:new 0 0 1300 1001;" xml:space="preserve">
<style type="text/css">
	.st0{fill:#FFFFFF;}
</style>
<path class="st0" d="M310.6,332.2h32.6c-0.1,4.8-0.6,8.6-1.4,11.5c-0.7,2.7-2.2,6.3-4.4,10.8c-9.8,19.9-27,29.8-51.9,29.8
	c-19.2,0-34.5-6.2-45.9-18.5c-11.3-12.5-16.9-28.3-16.9-47.6c0-19.3,5.9-35,17.6-47.1c11.8-12.2,27-18.3,45.7-18.3
	c14.7,0,27.5,4.3,38.5,12.9c10.9,8.6,16.9,20.1,18,34.4h-32.3c-2.8-13.2-11.1-19.8-24.9-19.8c-8.9,0-16.1,3.5-21.5,10.6
	c-5.3,6.9-7.9,16.3-7.9,28c0,11.4,2.6,20.5,7.9,27.3c5.4,6.8,12.6,10.2,21.5,10.2C299.8,356.4,308.2,348.3,310.6,332.2z M424.5,289
	v26.8c-4.7-1.2-8.6-1.8-11.8-1.8c-15.1,0-22.6,8.6-22.6,25.8v41.5h-29.8v-91h28.6l-0.2,15.5c3.2-6,6.9-10.4,11.3-13.2
	c4.5-2.9,10.1-4.4,16.8-4.4C419.3,288.1,421.9,288.4,424.5,289z M524,343h-67.7c0.1,6.7,2,11.9,5.6,15.7c3.8,3.6,8.8,5.5,15.2,5.5
	c7.5,0,13.2-3.5,17.1-10.6h28c-2.9,9.8-8.4,17.3-16.4,22.6c-7.9,5.3-17.6,7.9-29.1,7.9c-14.5,0-26.4-4.2-35.8-12.7
	c-9.3-8.6-13.9-20.1-13.9-34.6c0-14.3,4.5-26,13.6-35.1c9.1-9.2,20.8-13.8,35.1-13.8c14.9,0,26.7,4.7,35.3,14.1
	c8.7,9.3,13.1,22.1,13.1,38.3v2.7H524z M494.6,325.9c-0.5-5.4-2.4-9.7-5.6-12.9c-3.2-3.3-7.5-4.9-13.1-4.9
	c-10.9,0-17.3,5.9-19.2,17.8H494.6z M627.4,381.3h-30.3c-0.8-2.6-1.3-5.5-1.4-8.6c-8.4,7.6-18.4,11.5-30.2,11.5
	c-9.9,0-17.7-2.5-23.5-7.4c-5.6-5.1-8.5-11.9-8.5-20.6c0-4.4,0.8-8.2,2.3-11.5s3.3-5.8,5.3-7.6c2-1.9,4.9-3.5,8.8-4.9
	c3.9-1.4,7.2-2.4,9.9-2.8c2.7-0.6,6.5-1.2,11.3-1.9c11.4-1.8,17.8-2.9,19.2-3.5c3.2-1.3,4.8-3.8,4.8-7.4c0-6.5-4.6-9.7-13.9-9.7
	c-4.8,0-8.3,0.8-10.6,2.3c-2.1,1.5-3.7,4.6-4.8,9.2h-28.2c1.9-20.3,16.5-30.5,43.9-30.5c14.7,0,25.9,2.8,33.5,8.3
	c3.4,2.5,5.7,5.4,6.9,8.6c1.3,3.3,1.9,8,1.9,14.1v36.5C623.9,367.1,625.1,375.8,627.4,381.3z M595.2,338.6c-1.4,0.7-3.1,1.4-4.9,1.9
	c-1.9,0.6-3.4,1-4.6,1.2c-1.1,0.2-2.9,0.6-5.5,1.2c-2.5,0.5-4.1,0.8-4.8,0.9c-7.4,1.5-11.1,5.2-11.1,11.1c0,3.4,1.1,6.1,3.2,7.9
	c2.1,1.9,5,2.8,8.6,2.8c5.3,0,9.8-1.5,13.4-4.6c3.8-3.2,5.6-7.6,5.6-13.2L595.2,338.6L595.2,338.6z M698.9,290.2v19.4h-18.7v37.6
	c0,4.8,0.6,8.2,1.8,10.1c1.2,1.8,4.2,2.6,9,2.6c3.5,0,6.2-0.1,7.9-0.4v22.1c-6.9,0.6-12.6,0.9-17.1,0.9c-12.1,0-20.4-2.2-24.9-6.5
	c-4.5-4.4-6.7-12.4-6.7-24.2v-42.2h-15v-19.4h15v-27.9h30v27.9H698.9z M743.3,255.7v22.6h-30v-22.6L743.3,255.7L743.3,255.7z
	 M743.3,290.2v91h-30v-91H743.3z M819.4,290.2H850l-30.7,91h-34.6l-30.7-91h31.4l16.9,59.1L819.4,290.2z M951.9,343h-67.7
	c0.1,6.7,2,11.9,5.6,15.7c3.8,3.6,8.8,5.5,15.2,5.5c7.5,0,13.2-3.5,17.1-10.6h28c-2.9,9.8-8.4,17.3-16.4,22.6
	c-7.9,5.3-17.6,7.9-29.1,7.9c-14.5,0-26.4-4.2-35.8-12.7c-9.3-8.6-13.9-20.1-13.9-34.6c0-14.3,4.5-26,13.6-35.1
	c9.1-9.2,20.8-13.8,35.1-13.8c14.9,0,26.7,4.7,35.3,14.1c8.7,9.3,13.1,22.1,13.1,38.3L951.9,343L951.9,343z M922.5,325.9
	c-0.5-5.4-2.4-9.7-5.6-12.9c-3.2-3.3-7.5-4.9-13.1-4.9c-10.9,0-17.3,5.9-19.2,17.8H922.5z M226.4,544.3V418.7h63.2
	c11.9,0,21.6,2.5,29.1,7.6c7.6,5.1,11.5,13.1,11.5,24c0,6-1.4,11-4.1,15s-6.8,7.5-12.3,10.4c15.1,4.9,22.6,15.2,22.6,30.9
	c0,11.9-4.1,21.3-12.3,28.2c-3.4,2.8-7.3,5-11.6,6.5c-4.4,1.4-8.2,2.3-11.5,2.6c-3.3,0.2-7.8,0.4-13.4,0.4H226.4z M258.5,468H282
	c10.8,0,16.2-4.1,16.2-12.2c0-4.7-1.5-7.9-4.6-9.5c-3.1-1.8-7.2-2.6-12.5-2.6h-22.6V468z M258.5,518.3h25.9c5.9,0,10.5-0.9,13.8-2.8
	c3.3-2,4.9-5.8,4.9-11.5c0-5.5-1.8-9.3-5.3-11.3c-3.5-2.1-8.3-3.2-14.3-3.2h-25V518.3z M443.5,453.2v91h-28.8V532
	c-7.2,9.9-16.9,14.8-29.3,14.8c-10.8,0-19-3.3-24.5-9.9c-5.4-6.7-8.1-15.6-8.1-26.8v-57h30.3v50.3c0,3.2,0.1,5.6,0.4,7.4
	c0.2,1.8,0.8,3.6,1.6,5.6c0.8,1.9,2.2,3.3,4.1,4.2c2,0.8,4.6,1.2,7.8,1.2c6.5,0,10.9-1.9,13.2-5.6c2.4-3.8,3.5-9,3.5-15.7V453h29.8
	V453.2z M544,479.9h-27.5c-0.6-3.9-2.1-6.6-4.4-8.1c-2.4-1.6-5.8-2.5-10.2-2.5c-8,0-12,2.5-12,7.4c0,0.8,0.1,1.6,0.4,2.3
	c0.2,0.7,0.6,1.4,1.2,1.9s1.1,0.9,1.6,1.2c0.5,0.2,1.2,0.5,2.1,0.9c0.9,0.2,1.6,0.5,2.1,0.7c0.5,0.1,1.2,0.3,2.3,0.5
	c1.1,0.1,1.8,0.2,2.1,0.4c12.9,2.7,22.1,5,27.5,6.9c11.6,4.1,17.5,12.1,17.5,23.8c0,9.8-3.9,17.5-11.6,23.1
	c-7.8,5.5-18.5,8.3-32.1,8.3c-12.5,0-22.8-2.5-31-7.4c-8.2-5.1-12.6-13.4-13.2-25h28.4c0.6,8.6,6.1,12.9,16.6,12.9
	c4.2,0,7.6-0.8,10.1-2.5c2.5-1.6,3.7-3.9,3.7-6.9c0-2.5-1.1-4.4-3.2-5.6c-2-1.3-6.1-2.6-12.2-3.9c-9.9-2-17.8-4-23.8-6
	c-11.9-4.1-17.8-11.9-17.8-23.3c0-9.2,3.6-16.2,10.9-21c7.3-4.9,17.8-7.4,31.4-7.4c5.5,0,10.6,0.5,15.2,1.6c4.7,0.9,9,2.5,12.9,4.6
	s7,5.2,9.3,9.2C542.5,469.8,543.8,474.5,544,479.9z M592.9,418.7v22.6h-30v-22.6H592.9z M592.9,453.2v91h-30v-91H592.9z
	 M642.8,453.2v12c7.5-9.6,17.3-14.5,29.5-14.5c10.2,0,18.3,2.9,24.2,8.6c5.9,5.6,8.8,13.9,8.8,24.9v60H675v-51.7
	c0-5.5-0.9-9.8-2.8-12.9c-1.9-3.1-5.5-4.6-10.9-4.6s-9.6,1.6-12.7,4.8c-2.9,3.2-4.4,7.7-4.4,13.6v50.8h-30v-91H642.8z M817.9,506
	h-67.7c0.1,6.7,2,11.9,5.6,15.7c3.8,3.6,8.8,5.5,15.2,5.5c7.5,0,13.2-3.5,17.1-10.6h28c-2.9,9.8-8.4,17.3-16.4,22.6
	c-7.9,5.3-17.6,7.9-29.1,7.9c-14.5,0-26.4-4.2-35.8-12.7c-9.3-8.6-13.9-20.1-13.9-34.6c0-14.3,4.5-26,13.6-35.1
	c9.1-9.2,20.8-13.8,35.1-13.8c14.9,0,26.7,4.7,35.3,14.1c8.7,9.3,13.1,22.1,13.1,38.3L817.9,506L817.9,506z M788.5,488.9
	c-0.5-5.4-2.4-9.7-5.6-12.9c-3.2-3.3-7.5-4.9-13.1-4.9c-10.9,0-17.3,5.9-19.2,17.8H788.5z M913.2,479.9h-27.5
	c-0.6-3.9-2.1-6.6-4.4-8.1c-2.4-1.6-5.8-2.5-10.2-2.5c-8,0-12,2.5-12,7.4c0,0.8,0.1,1.6,0.4,2.3c0.2,0.7,0.6,1.4,1.2,1.9
	c0.6,0.5,1.1,0.9,1.6,1.2c0.5,0.2,1.2,0.5,2.1,0.9c0.9,0.2,1.6,0.5,2.1,0.7c0.5,0.1,1.2,0.3,2.3,0.5c1.1,0.1,1.8,0.2,2.1,0.4
	c12.9,2.7,22.1,5,27.5,6.9c11.6,4.1,17.5,12.1,17.5,23.8c0,9.8-3.9,17.5-11.6,23.1c-7.8,5.5-18.5,8.3-32.1,8.3
	c-12.5,0-22.8-2.5-31-7.4c-8.2-5.1-12.6-13.4-13.2-25h28.4c0.6,8.6,6.1,12.9,16.6,12.9c4.2,0,7.6-0.8,10.1-2.5
	c2.5-1.6,3.7-3.9,3.7-6.9c0-2.5-1.1-4.4-3.2-5.6c-2-1.3-6.1-2.6-12.2-3.9c-9.9-2-17.8-4-23.8-6c-11.9-4.1-17.8-11.9-17.8-23.3
	c0-9.2,3.6-16.2,10.9-21c7.3-4.9,17.8-7.4,31.4-7.4c5.5,0,10.6,0.5,15.2,1.6c4.7,0.9,9,2.5,12.9,4.6s7,5.2,9.3,9.2
	C911.7,469.8,913,474.5,913.2,479.9z M1011.3,479.9h-27.5c-0.6-3.9-2.1-6.6-4.4-8.1c-2.4-1.6-5.8-2.5-10.2-2.5c-8,0-12,2.5-12,7.4
	c0,0.8,0.1,1.6,0.4,2.3c0.2,0.7,0.6,1.4,1.2,1.9c0.6,0.5,1.1,0.9,1.6,1.2c0.5,0.2,1.2,0.5,2.1,0.9c0.9,0.2,1.6,0.5,2.1,0.7
	c0.5,0.1,1.2,0.3,2.3,0.5c1.1,0.1,1.8,0.2,2.1,0.4c12.9,2.7,22.1,5,27.5,6.9c11.6,4.1,17.5,12.1,17.5,23.8c0,9.8-3.9,17.5-11.6,23.1
	c-7.8,5.5-18.5,8.3-32.1,8.3c-12.5,0-22.8-2.5-31-7.4c-8.2-5.1-12.6-13.4-13.2-25h28.4c0.6,8.6,6.1,12.9,16.6,12.9
	c4.2,0,7.6-0.8,10.1-2.5c2.5-1.6,3.7-3.9,3.7-6.9c0-2.5-1.1-4.4-3.2-5.6c-2-1.3-6.1-2.6-12.2-3.9c-9.9-2-17.8-4-23.8-6
	c-11.9-4.1-17.8-11.9-17.8-23.3c0-9.2,3.6-16.2,10.9-21c7.3-4.9,17.8-7.4,31.4-7.4c5.5,0,10.6,0.5,15.2,1.6c4.7,0.9,9,2.5,12.9,4.6
	s7,5.2,9.4,9.2C1009.7,469.8,1011,474.5,1011.3,479.9z M334.9,580.7v125.6h-33v-51.9h-42.5v51.9h-33V580.7h33v44.8h42.5v-44.8H334.9
	z M444.5,706.3h-30.3c-0.8-2.6-1.3-5.5-1.4-8.6c-8.4,7.6-18.4,11.5-30.2,11.5c-9.9,0-17.7-2.5-23.5-7.4c-5.6-5.1-8.5-11.9-8.5-20.6
	c0-4.4,0.8-8.2,2.3-11.5s3.3-5.8,5.3-7.6c2-1.9,4.9-3.5,8.8-4.9s7.2-2.4,9.9-2.8c2.7-0.6,6.5-1.2,11.3-1.9
	c11.4-1.8,17.8-2.9,19.2-3.5c3.2-1.3,4.8-3.8,4.8-7.4c0-6.5-4.6-9.7-13.9-9.7c-4.8,0-8.4,0.8-10.6,2.3c-2.1,1.5-3.7,4.6-4.8,9.2
	h-28.2c1.9-20.3,16.5-30.5,43.9-30.5c14.7,0,25.9,2.8,33.5,8.3c3.4,2.5,5.7,5.4,6.9,8.6c1.3,3.3,1.9,8,1.9,14.1v36.5
	C441,692.1,442.1,700.8,444.5,706.3z M412.2,663.6c-1.4,0.7-3.1,1.4-4.9,1.9c-1.9,0.6-3.4,1-4.6,1.2c-1.1,0.2-2.9,0.6-5.5,1.2
	c-2.5,0.5-4.1,0.8-4.8,0.9c-7.4,1.5-11.1,5.2-11.1,11.1c0,3.4,1.1,6.1,3.2,7.9c2.1,1.9,5,2.8,8.6,2.8c5.3,0,9.8-1.5,13.4-4.6
	c3.8-3.2,5.6-7.6,5.6-13.2L412.2,663.6L412.2,663.6z M521.7,670.4h28.8c-1.6,12.2-6.5,21.6-14.5,28.2c-7.9,6.6-18.4,9.9-31.6,9.9
	c-14.1,0-25.6-4.3-34.4-12.9c-8.8-8.7-13.2-20.1-13.2-34.2c0-14.6,4.4-26.3,13.2-35.3c8.8-8.9,20.5-13.4,34.9-13.4
	c12.7,0,23.1,3.2,31.2,9.7c8.2,6.5,12.8,15.1,13.6,25.8h-28.9c-0.7-4.4-2.5-7.7-5.3-10.1c-2.7-2.5-6.1-3.7-10.2-3.7
	c-5.9,0-10.5,2.4-13.8,7.1c-3.2,4.7-4.8,11.3-4.8,19.8c0,8,1.6,14.2,4.8,18.5c3.2,4.4,7.7,6.5,13.6,6.5
	C514.3,686.3,519.8,681,521.7,670.4z M656.6,615.2l-33.3,34l38.1,57h-35.8l-22.8-36.9l-8.5,7.8v29.1H565V580.7h29.3v64l27.9-29.5
	H656.6z M762.6,668h-67.7c0.1,6.7,2,11.9,5.6,15.7c3.8,3.6,8.8,5.5,15.2,5.5c7.5,0,13.2-3.5,17.1-10.6h28
	c-2.9,9.8-8.4,17.3-16.4,22.6c-7.9,5.3-17.6,7.9-29.1,7.9c-14.5,0-26.4-4.2-35.8-12.7c-9.3-8.6-13.9-20.1-13.9-34.6
	c0-14.3,4.5-26,13.6-35.1c9.1-9.2,20.8-13.8,35.1-13.8c14.9,0,26.7,4.7,35.3,14.1c8.7,9.3,13.1,22.1,13.1,38.3L762.6,668L762.6,668z
	 M733.2,650.9c-0.5-5.4-2.4-9.7-5.6-12.9c-3.2-3.3-7.5-4.9-13.1-4.9c-10.9,0-17.3,5.9-19.2,17.8L733.2,650.9L733.2,650.9z
	 M842.9,614v26.8c-4.7-1.2-8.6-1.8-11.8-1.8c-15.1,0-22.6,8.6-22.6,25.8v41.5h-29.8v-91h28.6l-0.2,15.5c3.2-6,6.9-10.4,11.3-13.2
	c4.5-2.9,10.1-4.4,16.8-4.4C837.8,613.1,840.4,613.4,842.9,614z"/>
</svg>
