<svg width="1000" height="1001" viewBox="0 0 1000 1001" fill="none" xmlns="http://www.w3.org/2000/svg">
<path d="M454.284 351.833C489.982 344.582 519.572 354.072 545.148 379.136C570.407 354.68 599.997 344.046 636.279 352.15C636.279 329.738 635.574 308.713 636.45 287.761C637.886 253.328 654.871 228.215 686.505 215.051C718.14 201.886 747.949 207.629 773.525 230.6C790.631 245.955 799.441 265.909 799.489 288.881C799.708 408.094 800.462 527.331 799.392 646.545C798.272 772.718 692.662 878.985 566.513 881.297C523.32 882.1 479.762 885.702 437.006 874.459C394.884 863.387 358.042 843.141 327.089 812.553C292.777 778.631 258.661 744.514 224.69 710.252C191.669 676.963 191.815 625.715 224.861 592.255C243.671 573.201 262.457 554.172 281.73 535.605C288.324 529.254 291.171 522.757 291.147 513.388C290.806 409.165 290.855 304.965 291.001 200.742C291.05 165.579 311.977 135.964 344.415 123.992C376.171 112.263 411.309 121.242 434.086 147.085C447.811 162.659 454.235 181.08 454.284 201.715C454.357 247.123 454.308 292.555 454.308 337.963C454.284 342.343 454.284 346.699 454.284 351.833ZM545.026 604.69C527.505 620.507 507.235 628.148 483.898 628.173C480.565 628.173 476.72 631.409 474.019 634.061C456.936 650.803 440.121 667.813 423.209 684.75C410.02 697.963 395.663 699.35 384.761 688.448C374.881 678.593 376.39 663.141 388.581 650.852C406.297 633.015 424.28 615.421 441.825 597.438C458.688 580.161 462.509 555.121 451.948 534.559C434.622 500.88 392.742 493.823 364.661 520.956C329.96 554.489 296.136 588.921 262.116 623.135C243.33 642.043 243.306 660.245 262.141 679.226C295.26 712.637 328.281 746.145 362.008 778.923C398.145 814.062 441.873 832.166 492.391 833.14C513.465 833.553 534.562 833.334 555.66 833.188C667.671 832.483 751.137 748.335 751.186 636.008C751.234 524.484 751.21 412.936 751.186 301.413C751.186 296.959 751.332 292.482 751.015 288.029C749.774 271.19 737.364 258.682 720.549 257.076C704.172 255.494 689.425 266.055 685.581 282.675C684.413 287.737 684.291 293.115 684.291 298.347C684.218 380.28 684.34 462.189 684.194 544.122C684.121 586.975 656.501 619.899 614.938 626.785C588.268 631.19 565.54 621.992 545.026 604.69ZM405.81 454.329C405.81 432.769 405.81 410.576 405.81 388.383C405.786 326.404 405.907 264.449 405.688 202.47C405.615 180.034 389.555 165.579 368.238 167.866C350.742 169.74 339.426 183.367 339.378 203.735C339.232 291.63 339.304 379.525 339.329 467.396C339.329 470.097 339.815 472.774 340.108 475.719C350.888 470.754 360.719 465.133 371.255 461.678C381.938 458.222 393.326 456.884 405.81 454.329ZM636.206 483.7C636.206 463.454 636.425 443.208 636.133 422.986C635.866 403.3 622.652 393.737 603.574 398.993C582.647 404.76 569.409 421.575 569.263 443.476C569.044 476.254 569.141 509.056 569.239 541.835C569.287 564.368 583.158 579.577 603.234 579.382C622.555 579.188 635.963 564.125 636.182 542.005C636.352 522.562 636.206 503.119 636.206 483.7ZM505.605 571.498C507.284 572.009 508.963 572.545 510.642 573.056C513.976 564.539 519.937 556.095 520.205 547.48C521.325 511.904 521.179 476.278 520.546 440.677C520.157 418.655 504.485 401.889 482.779 397.971C466.573 395.051 454.819 404.371 454.357 420.918C454.04 432.233 454.868 443.622 454.065 454.889C453.359 464.671 455.865 471.363 464.601 477.008C471.902 481.705 478.107 488.567 483.752 495.332C502.076 517.33 507.795 543.319 505.605 571.498Z" fill="white"/>
</svg>
