<?xml version="1.0" encoding="utf-8"?>
<!-- Generator: Adobe Illustrator 26.2.1, SVG Export Plug-In . SVG Version: 6.00 Build 0)  -->
<svg version="1.1" id="Layer_1" xmlns="http://www.w3.org/2000/svg" xmlns:xlink="http://www.w3.org/1999/xlink" x="0px" y="0px"
	 viewBox="0 0 1000 1001" style="enable-background:new 0 0 1000 1001;" xml:space="preserve">
<style type="text/css">
	.st0{fill:#FFFD47;}
</style>
<path class="st0" d="M454.3,351.8c35.7-7.3,65.3,2.2,90.9,27.3c25.3-24.5,54.8-35.1,91.1-27c0-22.4-0.7-43.4,0.2-64.4
	c1.4-34.4,18.4-59.5,50.1-72.7c31.6-13.2,61.4-7.4,87,15.5c17.1,15.4,25.9,35.3,26,58.3c0.2,119.2,1,238.5-0.1,357.7
	C798.3,772.7,692.7,879,566.5,881.3c-43.2,0.8-86.8,4.4-129.5-6.8c-42.1-11.1-79-31.3-109.9-61.9c-34.3-33.9-68.4-68-102.4-102.3
	c-33-33.3-32.9-84.5,0.2-118c18.8-19.1,37.6-38.1,56.9-56.7c6.6-6.4,9.4-12.8,9.4-22.2c-0.3-104.2-0.3-208.4-0.1-312.6
	c0-35.2,21-64.8,53.4-76.8c31.8-11.7,66.9-2.8,89.7,23.1c13.7,15.6,20.1,34,20.2,54.6c0.1,45.4,0,90.8,0,136.2
	C454.3,342.3,454.3,346.7,454.3,351.8z M545,604.7c-17.5,15.8-37.8,23.5-61.1,23.5c-3.3,0-7.2,3.2-9.9,5.9
	c-17.1,16.7-33.9,33.8-50.8,50.7c-13.2,13.2-27.5,14.6-38.4,3.7c-9.9-9.9-8.4-25.3,3.8-37.6c17.7-17.8,35.7-35.4,53.2-53.4
	c16.9-17.3,20.7-42.3,10.1-62.9c-17.3-33.7-59.2-40.7-87.3-13.6c-34.7,33.5-68.5,68-102.5,102.2c-18.8,18.9-18.8,37.1,0,56.1
	c33.1,33.4,66.1,66.9,99.9,99.7c36.1,35.1,79.9,53.2,130.4,54.2c21.1,0.4,42.2,0.2,63.3,0c112-0.7,195.5-84.9,195.5-197.2
	c0-111.5,0-223.1,0-334.6c0-4.5,0.1-8.9-0.2-13.4c-1.2-16.8-13.7-29.3-30.5-31c-16.4-1.6-31.1,9-35,25.6c-1.2,5.1-1.3,10.4-1.3,15.7
	c-0.1,81.9,0,163.8-0.1,245.8c-0.1,42.9-27.7,75.8-69.3,82.7C588.3,631.2,565.5,622,545,604.7z M405.8,454.3c0-21.6,0-43.8,0-65.9
	c0-62,0.1-123.9-0.1-185.9c-0.1-22.4-16.1-36.9-37.5-34.6c-17.5,1.9-28.8,15.5-28.9,35.9c-0.1,87.9-0.1,175.8,0,263.7
	c0,2.7,0.5,5.4,0.8,8.3c10.8-5,20.6-10.6,31.1-14C381.9,458.2,393.3,456.9,405.8,454.3z M636.2,483.7c0-20.2,0.2-40.5-0.1-60.7
	c-0.3-19.7-13.5-29.2-32.6-24c-20.9,5.8-34.2,22.6-34.3,44.5c-0.2,32.8-0.1,65.6,0,98.4c0,22.5,13.9,37.7,34,37.5
	c19.3-0.2,32.7-15.3,32.9-37.4C636.4,522.6,636.2,503.1,636.2,483.7z M505.6,571.5c1.7,0.5,3.4,1,5,1.6c3.3-8.5,9.3-17,9.6-25.6
	c1.1-35.6,1-71.2,0.3-106.8c-0.4-22-16.1-38.8-37.8-42.7c-16.2-2.9-28,6.4-28.4,22.9c-0.3,11.3,0.5,22.7-0.3,34
	c-0.7,9.8,1.8,16.5,10.5,22.1c7.3,4.7,13.5,11.6,19.2,18.3C502.1,517.3,507.8,543.3,505.6,571.5z"/>
</svg>
